<svg width="16" height="16" viewBox="0 0 16 16" fill="none" xmlns="http://www.w3.org/2000/svg">
<path d="M5.33341 16C6.80541 16 8.00008 14.8053 8.00008 13.3333V10.6666H5.33341C3.86141 10.6666 2.66675 11.8613 2.66675 13.3333C2.66675 14.8053 3.86141 16 5.33341 16Z" fill="#0ACF83"/>
<path d="M2.66675 8.00004C2.66675 6.52804 3.86141 5.33337 5.33341 5.33337H8.00008V10.6667H5.33341C3.86141 10.6667 2.66675 9.47204 2.66675 8.00004Z" fill="#A259FF"/>
<path d="M2.66675 2.66667C2.66675 1.19467 3.86141 0 5.33341 0H8.00008V5.33333H5.33341C3.86141 5.33333 2.66675 4.13867 2.66675 2.66667Z" fill="#F24E1E"/>
<path d="M8 0H10.6667C12.1387 0 13.3333 1.19467 13.3333 2.66667C13.3333 4.13867 12.1387 5.33333 10.6667 5.33333H8V0Z" fill="#FF7262"/>
<path d="M13.3333 8.00004C13.3333 9.47204 12.1387 10.6667 10.6667 10.6667C9.19467 10.6667 8 9.47204 8 8.00004C8 6.52804 9.19467 5.33337 10.6667 5.33337C12.1387 5.33337 13.3333 6.52804 13.3333 8.00004Z" fill="#1ABCFE"/>
</svg>
