<svg width="16" height="16" viewBox="0 0 16 16" fill="none" xmlns="http://www.w3.org/2000/svg">
<g clip-path="url(#clip0)">
<path d="M15.6982 7.28747L8.7125 0.302101C8.31044 -0.100212 7.65794 -0.100212 7.25537 0.302101L5.80475 1.75273L7.64494 3.59291C8.07256 3.44841 8.56294 3.54535 8.90381 3.88622C9.24631 4.22929 9.34256 4.72385 9.19456 5.15285L10.968 6.92635C11.3971 6.77854 11.8921 6.87416 12.2348 7.21741C12.7137 7.69616 12.7137 8.4721 12.2348 8.95116C11.7557 9.43029 10.9798 9.43029 10.5005 8.95116C10.1402 8.59054 10.0512 8.06147 10.2336 7.61766L8.57975 5.96379L8.57956 10.3161C8.69945 10.3754 8.80895 10.4537 8.90381 10.548C9.38275 11.0267 9.38275 11.8027 8.90381 12.2822C8.42475 12.761 7.64844 12.761 7.17006 12.2822C6.69112 11.8027 6.69112 11.0268 7.17006 10.548C7.28484 10.4332 7.42124 10.3423 7.57137 10.2805V5.8876C7.42102 5.82622 7.28454 5.73523 7.17006 5.62004C6.80719 5.25766 6.71994 4.72523 6.90587 4.27966L5.09187 2.46548L0.301875 7.25516C-0.100625 7.65785 -0.100625 8.31041 0.301875 8.71279L7.28775 15.6983C7.68994 16.1007 8.34231 16.1007 8.745 15.6983L15.6982 8.74522C16.1006 8.34272 16.1006 7.68979 15.6982 7.28747" fill="#DE4C36"/>
</g>
<defs>
<clipPath id="clip0">
<rect width="16" height="16" fill="white"/>
</clipPath>
</defs>
</svg>
