<svg width="16" height="16" viewBox="0 0 16 16" fill="none" xmlns="http://www.w3.org/2000/svg">
<path d="M0 0H16V16H0V0Z" fill="#F7DF1E"/>
<path d="M4.20709 13.3708L5.43147 12.6298C5.66772 13.0486 5.88259 13.403 6.39803 13.403C6.89209 13.403 7.20366 13.2098 7.20366 12.458V7.34564H8.70722V12.4793C8.70722 14.0366 7.79434 14.7454 6.46247 14.7454C5.25966 14.7454 4.56147 14.1225 4.20703 13.3707L4.20709 13.3708ZM9.52391 13.2097L10.7482 12.5009C11.0705 13.0272 11.4893 13.4138 12.2303 13.4138C12.8534 13.4138 13.2507 13.1023 13.2507 12.6727C13.2507 12.1572 12.8425 11.9746 12.1552 11.6739L11.7793 11.5127C10.6945 11.051 9.97497 10.471 9.97497 9.24664C9.97497 8.11889 10.8342 7.25964 12.1767 7.25964C13.1326 7.25964 13.82 7.59264 14.314 8.46258L13.1432 9.21445C12.8854 8.75264 12.6063 8.57008 12.1767 8.57008C11.7363 8.57008 11.457 8.84933 11.457 9.21445C11.457 9.66551 11.7363 9.8482 12.3807 10.1274L12.7565 10.2885C14.0347 10.8363 14.7542 11.3948 14.7542 12.6513C14.7542 14.0046 13.691 14.7456 12.2625 14.7456C10.8663 14.7456 9.96416 14.0798 9.52384 13.2098" fill="black"/>
</svg>
