<svg width="16" height="16" viewBox="0 0 16 16" fill="none" xmlns="http://www.w3.org/2000/svg">
<path d="M7.47656 0.0124804C7.44219 0.0156051 7.33283 0.0265415 7.2344 0.0343532C4.96431 0.239021 2.83796 1.4639 1.49121 3.34653C0.741286 4.3933 0.261645 5.58069 0.0804129 6.83838C0.0163567 7.2774 0.00854492 7.40707 0.00854492 8.00233C0.00854492 8.59758 0.0163567 8.72726 0.0804129 9.16627C0.514745 12.1675 2.65047 14.6892 5.54707 15.6235C6.06577 15.7906 6.61259 15.9047 7.2344 15.9734C7.47656 16 8.52334 16 8.7655 15.9734C9.83883 15.8547 10.7481 15.5891 11.6449 15.1313C11.7824 15.061 11.809 15.0423 11.7902 15.0266C11.7777 15.0173 11.1918 14.2314 10.4888 13.2815L9.21077 11.5551L7.60936 9.18502C6.7282 7.88203 6.00327 6.8165 5.99702 6.8165C5.99077 6.81494 5.98452 7.86796 5.9814 9.15378C5.97671 11.4051 5.97515 11.4957 5.94703 11.5489C5.90641 11.6254 5.87516 11.6567 5.80954 11.691C5.75955 11.716 5.7158 11.7207 5.47989 11.7207H5.2096L5.13773 11.6754C5.09086 11.6457 5.05649 11.6067 5.03305 11.5614L5.00024 11.491L5.00337 8.35854L5.00806 5.22447L5.05649 5.16354C5.08149 5.13073 5.13461 5.08855 5.1721 5.06824C5.23616 5.03699 5.26116 5.03387 5.53144 5.03387C5.85016 5.03387 5.90328 5.04636 5.98609 5.13698C6.00952 5.16198 6.87662 6.4681 7.91402 8.04138C8.95142 9.61467 10.37 11.7629 11.0668 12.8175L12.3323 14.7345L12.3964 14.6923C12.9635 14.3236 13.5635 13.7986 14.0384 13.2518C15.0493 12.091 15.7008 10.6755 15.9195 9.16627C15.9835 8.72726 15.9914 8.59758 15.9914 8.00233C15.9914 7.40707 15.9835 7.2774 15.9195 6.83838C15.4852 3.83711 13.3494 1.31548 10.4528 0.381194C9.94195 0.215586 9.39825 0.101534 8.78894 0.0327909C8.63895 0.0171674 7.60624 -1.84044e-05 7.47656 0.0124804V0.0124804ZM10.7481 4.84638C10.8231 4.88388 10.884 4.95575 10.9059 5.03074C10.9184 5.07136 10.9215 5.94003 10.9184 7.89765L10.9137 10.7067L10.4185 9.94745L9.92164 9.18815V7.14616C9.92164 5.82598 9.92789 5.08386 9.93726 5.04793C9.96226 4.96043 10.0169 4.89169 10.0919 4.85107C10.156 4.81826 10.1794 4.81514 10.4247 4.81514C10.6559 4.81514 10.6966 4.81826 10.7481 4.84638V4.84638Z" fill="white"/>
<path d="M12.2541 14.7689C12.1995 14.8033 12.1823 14.8267 12.2307 14.8001C12.2651 14.7798 12.3213 14.7376 12.3119 14.7361C12.3073 14.7361 12.2807 14.7517 12.2541 14.7689ZM12.1463 14.8392C12.1182 14.8611 12.1182 14.8626 12.1526 14.8455C12.1713 14.8361 12.187 14.8251 12.187 14.822C12.187 14.8095 12.1791 14.8126 12.1463 14.8392ZM12.0682 14.8861C12.0401 14.9079 12.0401 14.9095 12.0745 14.8923C12.0932 14.8829 12.1088 14.872 12.1088 14.8689C12.1088 14.8564 12.101 14.8595 12.0682 14.8861ZM11.9901 14.9329C11.962 14.9548 11.962 14.9564 11.9964 14.9392C12.0151 14.9298 12.0307 14.9189 12.0307 14.9158C12.0307 14.9033 12.0229 14.9064 11.9901 14.9329ZM11.8714 14.9954C11.812 15.0267 11.8151 15.0392 11.8745 15.0095C11.901 14.9954 11.9214 14.9814 11.9214 14.9783C11.9214 14.9673 11.9198 14.9689 11.8714 14.9954Z" fill="white"/>
</svg>
