<svg width="16" height="16" viewBox="0 0 16 16" fill="none" xmlns="http://www.w3.org/2000/svg">
<path d="M8.0002 9.42507C8.7872 9.42507 9.4252 8.78708 9.4252 8.00007C9.4252 7.21307 8.7872 6.57507 8.0002 6.57507C7.21319 6.57507 6.5752 7.21307 6.5752 8.00007C6.5752 8.78708 7.21319 9.42507 8.0002 9.42507Z" fill="#61DAFB"/>
<path d="M13.4125 5.65007C13.1375 5.55007 12.85 5.45007 12.55 5.36257C12.625 5.06257 12.6875 4.76257 12.7375 4.47507C13 2.82507 12.7125 1.66257 11.9125 1.21257C11.675 1.07507 11.4125 1.01257 11.1125 1.01257C10.2375 1.01257 9.12505 1.66257 8.00005 2.75007C6.87505 1.66257 5.76255 1.01257 4.88755 1.01257C4.58755 1.01257 4.32505 1.07507 4.08755 1.21257C3.28755 1.67507 3.00005 2.83757 3.26255 4.47507C3.31255 4.76257 3.37505 5.06257 3.45005 5.36257C3.15005 5.45007 2.86255 5.53757 2.58755 5.65007C1.02505 6.25007 0.175049 7.07507 0.175049 8.00007C0.175049 8.92507 1.03755 9.75007 2.58755 10.3501C2.86255 10.4501 3.15005 10.5501 3.45005 10.6376C3.37505 10.9376 3.31255 11.2376 3.26255 11.5251C3.00005 13.1751 3.28755 14.3376 4.08755 14.7876C4.32505 14.9251 4.58755 14.9876 4.88755 14.9876C5.77505 14.9876 6.88755 14.3376 8.00005 13.2501C9.12505 14.3376 10.2375 14.9876 11.1125 14.9876C11.4125 14.9876 11.675 14.9251 11.9125 14.7876C12.7125 14.3251 13 13.1626 12.7375 11.5251C12.6875 11.2376 12.625 10.9376 12.55 10.6376C12.85 10.5501 13.1375 10.4626 13.4125 10.3501C14.975 9.75007 15.825 8.92507 15.825 8.00007C15.825 7.07507 14.975 6.25007 13.4125 5.65007ZM11.5625 1.83757C12.075 2.13757 12.25 3.06257 12.0375 4.37507C12 4.63757 11.9375 4.91257 11.8625 5.20007C11.2125 5.05007 10.525 4.95007 9.80005 4.88757C9.37505 4.28757 8.93755 3.75007 8.50005 3.26257C9.42505 2.35007 10.3625 1.72507 11.125 1.72507C11.2875 1.72507 11.4375 1.76257 11.5625 1.83757ZM10.1625 9.25007C9.93755 9.65007 9.67505 10.0501 9.40005 10.4501C8.93755 10.4876 8.47505 10.5001 8.00005 10.5001C7.51255 10.5001 7.05005 10.4876 6.60005 10.4501C6.32505 10.0501 6.07505 9.65007 5.85005 9.25007C5.61255 8.83757 5.38755 8.41257 5.18755 8.00007C5.38755 7.58757 5.61255 7.16257 5.85005 6.75007C6.07505 6.35007 6.33755 5.95007 6.61255 5.55007C7.07505 5.51257 7.53755 5.50007 8.01255 5.50007C8.50005 5.50007 8.96255 5.51257 9.41255 5.55007C9.68755 5.95007 9.93755 6.35007 10.1625 6.75007C10.4 7.16257 10.625 7.58757 10.825 8.00007C10.6125 8.41257 10.4 8.82507 10.1625 9.25007ZM11.2 8.83757C11.3875 9.27507 11.5375 9.70007 11.675 10.1251C11.25 10.2251 10.8 10.3001 10.325 10.3626C10.475 10.1251 10.6375 9.87507 10.775 9.61257C10.925 9.35007 11.0625 9.08757 11.2 8.83757ZM8.00005 12.2251C7.70005 11.9001 7.41255 11.5501 7.13755 11.1876C7.42505 11.2001 7.71255 11.2126 8.00005 11.2126C8.28755 11.2126 8.57505 11.2001 8.86255 11.1876C8.58755 11.5501 8.30005 11.9001 8.00005 12.2251ZM5.67505 10.3501C5.20005 10.2876 4.75005 10.2126 4.32505 10.1126C4.46255 9.70007 4.61255 9.26257 4.80005 8.82507C4.93755 9.07507 5.07505 9.33757 5.22505 9.58757C5.37505 9.86257 5.52505 10.1001 5.67505 10.3501ZM4.80005 7.16257C4.61255 6.72507 4.46255 6.30007 4.32505 5.87507C4.75005 5.77507 5.20005 5.70007 5.67505 5.63757C5.52505 5.87507 5.36255 6.12507 5.22505 6.38757C5.07505 6.65007 4.93755 6.91257 4.80005 7.16257ZM8.00005 3.77507C8.30005 4.10007 8.58755 4.45007 8.86255 4.81257C8.57505 4.80007 8.28755 4.78757 8.00005 4.78757C7.71255 4.78757 7.42505 4.80007 7.13755 4.81257C7.41255 4.45007 7.70005 4.10007 8.00005 3.77507ZM10.775 6.40007L10.325 5.65007C10.8 5.71257 11.25 5.78757 11.675 5.88757C11.5375 6.30007 11.3875 6.73757 11.2 7.17507C11.0625 6.91257 10.925 6.65007 10.775 6.40007ZM3.96255 4.37507C3.75005 3.06257 3.92505 2.13757 4.43755 1.83757C4.56255 1.76257 4.71255 1.72507 4.87505 1.72507C5.62505 1.72507 6.56255 2.33757 7.50005 3.26257C7.06255 3.73757 6.62505 4.28757 6.20005 4.88757C5.47505 4.95007 4.78755 5.06257 4.13755 5.20007C4.06255 4.91257 4.01255 4.63757 3.96255 4.37507ZM0.875049 8.00007C0.875049 7.41257 1.58755 6.78757 2.83755 6.32507C3.08755 6.22507 3.36255 6.13757 3.63755 6.06257C3.83755 6.68757 4.08755 7.35007 4.38755 8.01257C4.08755 8.67507 3.82505 9.32507 3.63755 9.95007C1.91255 9.45007 0.875049 8.70007 0.875049 8.00007ZM4.43755 14.1626C3.92505 13.8626 3.75005 12.9376 3.96255 11.6251C4.00005 11.3626 4.06255 11.0876 4.13755 10.8001C4.78755 10.9501 5.47505 11.0501 6.20005 11.1126C6.62505 11.7126 7.06255 12.2501 7.50005 12.7376C6.57505 13.6501 5.63755 14.2751 4.87505 14.2751C4.71255 14.2751 4.56255 14.2376 4.43755 14.1626ZM12.0375 11.6251C12.25 12.9376 12.075 13.8626 11.5625 14.1626C11.4375 14.2376 11.2875 14.2751 11.125 14.2751C10.375 14.2751 9.43755 13.6626 8.50005 12.7376C8.93755 12.2626 9.37505 11.7126 9.80005 11.1126C10.525 11.0501 11.2125 10.9376 11.8625 10.8001C11.9375 11.0876 11.9875 11.3626 12.0375 11.6251ZM13.1625 9.67507C12.9125 9.77507 12.6375 9.86257 12.3625 9.93757C12.1625 9.31257 11.9125 8.65007 11.6125 7.98757C11.9125 7.32507 12.175 6.67507 12.3625 6.05007C14.0875 6.55007 15.125 7.30007 15.125 8.00007C15.125 8.58757 14.4 9.21257 13.1625 9.67507Z" fill="#61DAFB"/>
</svg>
