<svg width="22" height="16" viewBox="0 0 22 16" fill="none" xmlns="http://www.w3.org/2000/svg">
<path d="M18.3818 9.18765C17.6352 9.19186 16.9887 9.3711 16.4465 9.63799C16.2463 9.24189 16.0461 8.89579 16.0128 8.63733C15.9753 8.33714 15.9294 8.15364 15.9753 7.79511C16.0211 7.4365 16.2296 6.92784 16.2296 6.88614C16.2254 6.84862 16.1837 6.66517 15.7542 6.661C15.3246 6.65683 14.9533 6.74438 14.9116 6.85696C14.8699 6.96953 14.7865 7.22803 14.7323 7.49488C14.6572 7.8868 13.8731 9.27521 13.4268 10.0049C13.2808 9.72133 13.1557 9.47117 13.1306 9.271C13.0931 8.97084 13.0472 8.78735 13.0931 8.42882C13.139 8.07021 13.3475 7.56159 13.3475 7.51989C13.3434 7.48237 13.3017 7.29891 12.8721 7.29474C12.4425 7.29058 12.0713 7.37813 12.0296 7.49071C11.9879 7.60328 11.942 7.87012 11.8502 8.12862C11.7626 8.38713 10.7199 10.7053 10.4488 11.3099C10.3111 11.6184 10.1902 11.8644 10.1026 12.0312C10.015 12.198 10.0984 12.0437 10.0901 12.0604C10.015 12.2021 9.97328 12.2813 9.97328 12.2813V12.2856C9.91489 12.3898 9.85233 12.4898 9.82309 12.4898C9.80223 12.4898 9.76052 12.2105 9.83143 11.8269C9.98575 11.0222 10.3611 9.76724 10.357 9.72137C10.357 9.70053 10.4279 9.47951 10.1151 9.36697C9.81058 9.2544 9.70217 9.44202 9.67711 9.44202C9.65208 9.44202 9.63123 9.50873 9.63123 9.50873C9.63123 9.50873 9.96907 8.09535 8.98474 8.09535C8.36744 8.09535 7.51658 8.76662 7.09532 9.37953C6.82838 9.52545 6.26114 9.83395 5.66053 10.1634C5.43113 10.2885 5.19339 10.4219 4.96816 10.5428L4.92232 10.4927C3.72944 9.221 1.52303 8.32042 1.61479 6.61096C1.64816 5.98973 1.86505 4.35115 5.85247 2.36652C9.11829 0.740459 11.7334 1.18658 12.188 2.1789C12.8345 3.59649 10.7908 6.23155 7.39571 6.61096C6.10273 6.75689 5.42283 6.25657 5.25186 6.06894C5.07251 5.87298 5.04749 5.86464 4.98075 5.90217C4.87231 5.96054 4.93904 6.13565 4.98075 6.23989C5.08086 6.50256 5.49795 6.96953 6.207 7.20302C6.82842 7.40732 8.34667 7.51989 10.1819 6.8111C12.2381 6.01474 13.8439 3.80496 13.3726 1.95792C12.893 0.0775255 9.77312 -0.539545 6.82429 0.506973C5.0683 1.13238 3.16637 2.10802 1.79831 3.38802C0.17166 4.90568 -0.0869356 6.23155 0.0215079 6.78191C0.401102 8.74569 3.10798 10.0257 4.19241 10.9721C4.13819 11.0013 4.08814 11.0305 4.04226 11.0555C3.50004 11.3223 1.43544 12.4023 0.918252 13.5446C0.334326 14.8371 1.01001 15.767 1.46047 15.892C2.85355 16.2798 4.28 15.5835 5.05162 14.4369C5.81902 13.2903 5.7273 11.8019 5.37278 11.1222L5.36022 11.0972L5.78565 10.8471C6.06098 10.6845 6.33208 10.5344 6.56978 10.4051C6.43636 10.7678 6.34038 11.1973 6.29038 11.8227C6.23198 12.5565 6.53229 13.5071 6.92852 13.8823C7.1037 14.0449 7.31225 14.0491 7.44154 14.0491C7.90034 14.0491 8.10889 13.6697 8.33829 13.2152C8.62191 12.6607 8.87216 12.0186 8.87216 12.0186C8.87216 12.0186 8.55935 13.7573 9.41438 13.7573C9.7272 13.7573 10.04 13.3528 10.1818 13.1444V13.1485C10.1818 13.1485 10.1902 13.136 10.2069 13.1068C10.2244 13.081 10.241 13.0546 10.2569 13.0277V13.0193C10.382 12.8025 10.6615 12.3064 11.0786 11.485C11.6166 10.426 12.1338 9.10009 12.1338 9.10009C12.1338 9.10009 12.1839 9.42531 12.3382 9.95899C12.4299 10.2759 12.6301 10.6219 12.7844 10.9596C12.6593 11.1348 12.5842 11.2349 12.5842 11.2349L12.5884 11.239C12.4883 11.3725 12.3757 11.5143 12.2589 11.656C11.8335 12.1646 11.3247 12.7442 11.2579 12.911C11.1787 13.1069 11.1954 13.2529 11.3497 13.3696C11.4623 13.453 11.6625 13.4697 11.8752 13.453C12.2589 13.428 12.5259 13.3321 12.6593 13.2737C12.8679 13.1986 13.1056 13.0861 13.335 12.9193C13.7521 12.6108 14.0065 12.173 13.9815 11.5893C13.969 11.2683 13.8647 10.9514 13.7354 10.6512C13.773 10.597 13.8106 10.5427 13.8481 10.4844C14.5071 9.52124 15.0159 8.46226 15.0159 8.46226C15.0159 8.46226 15.066 8.78747 15.2203 9.32115C15.2995 9.59216 15.458 9.88823 15.5998 10.1801C14.9825 10.6846 14.5946 11.2683 14.4612 11.6519C14.2151 12.3607 14.407 12.6817 14.7698 12.7568C14.9324 12.7901 15.1661 12.7151 15.3412 12.64C15.5581 12.5692 15.8208 12.4482 16.0628 12.269C16.4799 11.9604 16.8803 11.531 16.8594 10.9514C16.8469 10.6846 16.776 10.4219 16.6801 10.1718C17.2056 9.95494 17.8854 9.82986 18.7489 9.9341C20.6049 10.1509 20.972 11.31 20.9011 11.7936C20.8302 12.2773 20.4423 12.5441 20.313 12.6275C20.1837 12.7067 20.1419 12.736 20.1545 12.7943C20.1711 12.8819 20.2295 12.8777 20.3421 12.8611C20.4965 12.836 21.3181 12.465 21.3515 11.5728C21.4016 10.426 20.313 9.17518 18.3818 9.18765ZM4.06728 14.0116C3.45416 14.6829 2.59078 14.9372 2.22374 14.7204C1.82751 14.4911 1.98179 13.503 2.73677 12.79C3.19556 12.3564 3.792 11.9561 4.18407 11.7101C4.27166 11.6559 4.40513 11.5768 4.56362 11.4808C4.58865 11.4642 4.60533 11.4558 4.60533 11.4558C4.63453 11.4391 4.66789 11.4183 4.70126 11.3974C4.98071 12.4148 4.71377 13.307 4.06728 14.0116ZM8.551 10.9638C8.33829 11.485 7.88783 12.8234 7.61672 12.7483C7.38311 12.6858 7.24134 11.6726 7.5708 10.672C7.73764 10.1674 8.09216 9.56706 8.30071 9.33354C8.63859 8.95829 9.00559 8.83321 9.09739 8.98748C9.20584 9.18765 8.68447 10.6386 8.551 10.9638ZM12.2506 12.7316C12.1588 12.7775 12.0754 12.8109 12.0379 12.7859C12.0087 12.7692 12.0754 12.7067 12.0754 12.7067C12.0754 12.7067 12.5383 12.2105 12.7219 11.9812C12.8261 11.8478 12.9513 11.6935 13.0847 11.5184V11.5684C13.0848 12.1688 12.5092 12.569 12.2506 12.7316ZM15.1035 12.0812C15.0367 12.0312 15.0451 11.8769 15.2703 11.3933C15.3579 11.2015 15.5581 10.8804 15.9043 10.5761C15.946 10.7011 15.971 10.822 15.9668 10.9346C15.9627 11.6851 15.4288 11.9645 15.1035 12.0812Z" fill="#CF649A"/>
</svg>
