<svg width="16" height="16" viewBox="0 0 16 16" fill="none" xmlns="http://www.w3.org/2000/svg">
<g clip-path="url(#clip0)">
<path d="M7.72396 3.51051C8.94546 3.51051 10.0965 4.05201 10.94 4.89851V4.90101C10.94 4.49451 11.2135 4.18701 11.5915 4.18701H11.6875C12.284 4.18701 12.4035 4.74951 12.4035 4.92701L12.406 11.2445C12.3645 11.6585 12.8335 11.8725 13.094 11.6065C14.1065 10.565 15.32 6.24701 12.4635 3.74701C9.79946 1.41351 6.22396 1.79901 4.32296 3.10901C2.30246 4.50501 1.01096 7.58851 2.26546 10.4865C3.63546 13.646 7.55196 14.5885 9.88296 13.6485C11.063 13.172 11.607 14.765 10.3805 15.2865C8.53196 16.075 3.38046 15.9945 0.974462 11.828C-0.651038 9.01351 -0.565038 4.06251 3.74796 1.49751C7.04446 -0.465987 11.394 0.0780137 14.016 2.81551C16.756 5.68001 16.5975 11.0395 13.9225 13.123C12.711 14.0705 10.912 13.149 10.925 11.7685L10.9115 11.3185C10.068 12.154 8.94546 12.644 7.72396 12.644C5.30746 12.644 3.17996 10.516 3.17996 8.10201C3.17996 5.66201 5.30746 3.51151 7.72396 3.51151V3.51051ZM10.7635 7.92751C10.672 6.15901 9.35946 5.09401 7.77346 5.09401H7.71346C5.88546 5.09401 4.86996 6.53401 4.86996 8.16651C4.86996 9.99701 6.09646 11.153 7.70596 11.153C9.50246 11.153 10.682 9.83851 10.768 8.28351L10.7635 7.92751Z" fill="white"/>
</g>
<defs>
<clipPath id="clip0">
<rect width="16" height="16" fill="white"/>
</clipPath>
</defs>
</svg>
