<svg width="24" height="24" viewBox="0 0 24 24" fill="none" xmlns="http://www.w3.org/2000/svg">
<path d="M17 19.22H5V7H12V5H5C3.9 5 3 5.9 3 7V19C3 20.1 3.9 21 5 21H17C18.1 21 19 20.1 19 19V12H17V19.22Z" fill="url(#paint0_linear)"/>
<path d="M19 2H17V5H14C14.01 5.01 14 7 14 7H17V9.99C17.01 10 19 9.99 19 9.99V7H22V5H19V2Z" fill="url(#paint1_linear)"/>
<path d="M15 9H7V11H15V9Z" fill="url(#paint2_linear)"/>
<path d="M7 12V14H15V12H12H7Z" fill="url(#paint3_linear)"/>
<path d="M15 15H7V17H15V15Z" fill="url(#paint4_linear)"/>
<defs>
<linearGradient id="paint0_linear" x1="3" y1="13" x2="19" y2="13" gradientUnits="userSpaceOnUse">
<stop stop-color="#00B4DB"/>
<stop offset="1" stop-color="#0083B0"/>
</linearGradient>
<linearGradient id="paint1_linear" x1="14" y1="5.99722" x2="22" y2="5.99722" gradientUnits="userSpaceOnUse">
<stop stop-color="#00B4DB"/>
<stop offset="1" stop-color="#0083B0"/>
</linearGradient>
<linearGradient id="paint2_linear" x1="7" y1="10" x2="15" y2="10" gradientUnits="userSpaceOnUse">
<stop stop-color="#00B4DB"/>
<stop offset="1" stop-color="#0083B0"/>
</linearGradient>
<linearGradient id="paint3_linear" x1="7" y1="13" x2="15" y2="13" gradientUnits="userSpaceOnUse">
<stop stop-color="#00B4DB"/>
<stop offset="1" stop-color="#0083B0"/>
</linearGradient>
<linearGradient id="paint4_linear" x1="7" y1="16" x2="15" y2="16" gradientUnits="userSpaceOnUse">
<stop stop-color="#00B4DB"/>
<stop offset="1" stop-color="#0083B0"/>
</linearGradient>
</defs>
</svg>
